<svg width="22" height="20" viewBox="0 0 22 20" fill="none" xmlns="http://www.w3.org/2000/svg">
<path d="M19.5312 0H2.34375C1.0498 0 0 0.953822 0 2.12946V17.7455C0 18.9212 1.0498 19.875 2.34375 19.875H19.5312C20.8252 19.875 21.875 18.9212 21.875 17.7455V2.12946C21.875 0.953822 20.8252 0 19.5312 0ZM7.8125 14.9062C7.8125 15.2984 7.46289 15.6161 7.03125 15.6161H5.46875C5.03711 15.6161 4.6875 15.2984 4.6875 14.9062V9.22768C4.6875 8.8355 5.03711 8.51786 5.46875 8.51786H7.03125C7.46289 8.51786 7.8125 8.8355 7.8125 9.22768V14.9062ZM12.5 14.9062C12.5 15.2984 12.1504 15.6161 11.7188 15.6161H10.1562C9.72461 15.6161 9.375 15.2984 9.375 14.9062V4.96875C9.375 4.57657 9.72461 4.25893 10.1562 4.25893H11.7188C12.1504 4.25893 12.5 4.57657 12.5 4.96875V14.9062ZM17.1875 14.9062C17.1875 15.2984 16.8379 15.6161 16.4062 15.6161H14.8438C14.4121 15.6161 14.0625 15.2984 14.0625 14.9062V12.067C14.0625 11.6748 14.4121 11.3571 14.8438 11.3571H16.4062C16.8379 11.3571 17.1875 11.6748 17.1875 12.067V14.9062Z" fill="black"/>
</svg>
